<svg id="Layer_1" data-name="Layer 1" xmlns="http://www.w3.org/2000/svg" viewBox="0 0 1924.16 416.03"><defs><style>.cls-1{fill:#8dc63f}.cls-11,.cls-2,.cls-6,.cls-7{fill:none}.cls-13,.cls-2{stroke:#000}.cls-11,.cls-13,.cls-15,.cls-2,.cls-6,.cls-7{stroke-linecap:round;stroke-linejoin:round;stroke-width:4.16px}.cls-3{fill:#fecf64}.cls-4{fill:#f2665e}.cls-5{fill:#929497}.cls-15,.cls-6,.cls-7{stroke:#020210}.cls-7{stroke-dasharray:0 8.32}.cls-8{fill:#e6e7e8}.cls-9{fill:#feb611}.cls-10{fill:#569ea4}.cls-11{stroke:#fff}.cls-12{fill:#58595b}.cls-13,.cls-15,.cls-16{fill:#fff}.cls-14{fill:#a87bb5}.cls-17{fill:#f68d3d}</style></defs><title>error-image</title><path class="cls-1" d="M34.26 687.4v306.13h306.13zm39.93 93.17l173 173h-173v-173z" transform="translate(279.08 -579.58)"/><path class="cls-2" d="M34.26 687.4v306.13h306.13zm39.93 93.17l173 173h-173v-173z" transform="translate(279.08 -579.58)"/><path class="cls-2" d="M566.23 407.3v6.65M552.92 407.3v6.65M539.61 407.3v6.65M526.3 407.3v6.65M512.99 407.3v6.65M499.68 407.3v6.65M486.37 407.3v6.65M473.06 407.3v6.65M459.75 407.3v6.65M446.44 407.3v6.65M433.13 407.3v6.65M419.82 407.3v6.65M406.51 407.3v6.65M393.2 407.3v6.65M379.89 407.3v6.65M366.58 407.3v6.65M353.27 407.3v6.65M339.96 407.3v6.65"/><path class="cls-3" transform="rotate(-45.01 -307.308 349.665)" d="M246.01 963.04h13.31v26.62h-13.31z"/><path class="cls-3" transform="rotate(-45.01 -222.606 264.981)" d="M290.78 878.33h93.17v26.62h-93.17z"/><path class="cls-4" transform="rotate(-45 -279.157 321.46)" d="M247.62 934.8h66.56v26.62h-66.56z"/><path class="cls-5" d="M701.15 274.41l-56.47-56.47-28.23 28.24 65.88 65.88 9.41-9.41 9.41-28.24z"/><path class="cls-6" transform="rotate(-45.01 -250.84 293.2)" d="M222.62 906.56h173.03v26.62H222.62z"/><path class="cls-6" d="M701.15 274.41l-56.47-56.47-28.23 28.24 65.88 65.88 9.41-9.41 9.41-28.24zM691.74 302.65l-65.88-65.88M572.43 335.59l18.82 18.82M527.03 382.65l18.83 18.82"/><path class="cls-7" d="M573.87 354.19l-28.23 28.24"/><path class="cls-8" d="M377.19 957.52l16.29 16.28a26.58 26.58 0 0 0-32.57-32.57l-89.78-89.78a26.58 26.58 0 0 0-32.57-32.57l16.29 16.29L236 854l-16.29-16.29a26.58 26.58 0 0 0 32.57 32.57l89.78 89.78a26.58 26.58 0 0 0 32.57 32.57l-16.29-16.29z" transform="translate(279.08 -579.58)"/><path class="cls-6" d="M377.19 957.52l16.29 16.28a26.58 26.58 0 0 0-32.57-32.57l-89.78-89.78a26.58 26.58 0 0 0-32.57-32.57l16.29 16.29L236 854l-16.29-16.29a26.58 26.58 0 0 0 32.57 32.57l89.78 89.78a26.58 26.58 0 0 0 32.57 32.57l-16.29-16.29z" transform="translate(279.08 -579.58)"/><path class="cls-1" d="M1715.77 81.2h39.93v332.76h-39.93z"/><path class="cls-6" d="M1715.77 81.2h39.93v332.76h-39.93zM1749.04 107.82h6.66M1749.04 121.13h6.66M1749.04 134.44h6.66M1749.04 147.75h6.66M1749.04 161.06h6.66M1749.04 174.37h6.66M1749.04 187.68h6.66M1749.04 200.99h6.66M1749.04 214.3h6.66M1749.04 227.61h6.66M1749.04 240.92h6.66M1749.04 254.23h6.66M1749.04 267.54h6.66M1749.04 280.85h6.66M1749.04 294.16h6.66M1749.04 307.47h6.66M1749.04 320.78h6.66M1749.04 334.09h6.66M1749.04 347.4h6.66M1749.04 360.71h6.66M1749.04 374.02h6.66M1749.04 387.33h6.66"/><path class="cls-9" d="M1772.34 161.06h26.62v239.58h-26.62z"/><path class="cls-6" d="M1772.34 161.06h26.62v252.89h-26.62zM1785.65 134.44l-13.31 26.62h26.62l-13.31-26.62zM1785.65 161.06v239.58M1772.34 400.64h26.62M1778.99 147.75h13.31"/><path class="cls-10" d="M1208.46 307.47h186.34v106.48h-186.34z"/><path class="cls-2" d="M1208.46 307.47h186.34v106.48h-186.34zM1208.46 307.47l69.88 53.24M1324.93 360.71l69.88-53.24"/><path class="cls-2" d="M999.26 940.29l14 10.65a16.29 16.29 0 0 0 18.64 0l14-10.65" transform="translate(279.08 -579.58)"/><path class="cls-2" d="M1394.81 413.95l-69.88-53.24M1278.34 360.71l-69.88 53.24"/><rect class="cls-5" x="326.65" y="267.54" width="79.86" height="146.41" rx="13.31" ry="13.31"/><path class="cls-10" d="M326.65 294.16h79.86v93.17h-79.86z"/><path class="cls-11" d="M333.3 387.33l39.1-39.1M406.51 294.16l-78.2 78.2M367.41 387.33l38.27-38.26M362 294.16L340.17 316"/><rect class="cls-6" x="326.65" y="267.54" width="79.86" height="146.41" rx="13.31" ry="13.31"/><path class="cls-6" d="M406.51 387.33h-79.86M326.65 294.16h79.86M366.58 280.85h13.31M359.92 400.64h13.31"/><path class="cls-12" d="M463.53 966.91V674.09a13.3 13.3 0 0 1 13.31-13.31h412.61a13.3 13.3 0 0 1 13.31 13.31v292.82" transform="translate(279.08 -579.58)"/><path class="cls-8" d="M476.84 966.91h-66.56a26.6 26.6 0 0 0 26.62 26.62h492.48A26.61 26.61 0 0 0 956 966.91h-66.55" transform="translate(279.08 -579.58)"/><path class="cls-13" d="M755.92 94.51h412.62v279.51H755.92z"/><path class="cls-2" d="M1181.84 387.33H742.61"/><path class="cls-2" d="M463.53 966.91V674.09a13.3 13.3 0 0 1 13.31-13.31h412.61a13.3 13.3 0 0 1 13.31 13.31v292.82" transform="translate(279.08 -579.58)"/><path class="cls-14" d="M755.92 225.39h133.1v106.48h-133.1z"/><path class="cls-2" d="M476.84 966.91h-66.56a26.6 26.6 0 0 0 26.62 26.62h492.48A26.61 26.61 0 0 0 956 966.91h-66.55" transform="translate(279.08 -579.58)"/><path class="cls-2" d="M915.64 387.33h93.17v13.31h-93.17zM755.92 225.39v106.49"/><path class="cls-8" d="M1301.63 152.19l-13.31-6.66v66.55l13.31-6.65v-53.24z"/><path class="cls-12" d="M928.95 158.84h13.31v39.93h-13.31zM1275.01 65.67h13.31v226.27h-13.31z"/><path class="cls-8" d="M1275.01 72.33v212.96l-186.34-73.21v-66.55l186.34-73.2zM995.5 212.08h53.24l-19.96 79.87h-53.25l19.97-79.87z"/><path class="cls-2" d="M1088.67 212.08l186.34 73.21M1088.67 145.53l186.34-73.2M1048.74 212.08l-19.97 79.87M1275.01 72.33v212.96M1275.01 65.67h13.31v226.27h-13.31zM1301.63 152.19l-13.31-6.66v66.55l13.31-6.65v-53.24zM942.26 178.81h-13.31"/><path class="cls-3" d="M636.56 898.15h13.31c13.31 0 26.62 13.31 39.93 13.31H763a13.31 13.31 0 1 0 0-26.62h6.66a13.31 13.31 0 0 0 0-26.62h6.66a13.31 13.31 0 0 0 0-26.62H783a13.31 13.31 0 0 0 0-26.6h-66.58v-13.34H689.8c-26.62 0-26.62 26.62-39.93 26.62h-13.31" transform="translate(279.08 -579.58)"/><path class="cls-2" d="M755.91 331.88h133.11V225.4h-13.31M889.02 225.39h26.62v106.48h-26.62zM889.02 252.01h26.62M902.33 265.33v13.31M875.71 225.39H755.92"/><path class="cls-2" d="M636.56 898.15h13.31c13.31 0 26.62 13.31 39.93 13.31H763a13.31 13.31 0 1 0 0-26.62h6.66a13.31 13.31 0 0 0 0-26.62h6.66a13.31 13.31 0 0 0 0-26.62H783a13.31 13.31 0 0 0 0-26.6h-69.91M689.8 791.66c-26.62 0-26.62 26.62-39.93 26.62" transform="translate(279.08 -579.58)"/><path class="cls-2" d="M915.64 238.7h13.31M992.17 225.4l3.33-13.32"/><path class="cls-1" d="M942.26 145.53h146.41v66.55H942.26z"/><path class="cls-2" d="M942.26 145.53h146.41v66.55H942.26zM928.95 158.84h13.31v39.93h-13.31zM1008.81 158.84v39.93M995.5 158.84v39.93M1022.12 158.84v39.93M1035.43 158.84v39.93M1088.67 178.81h186.34M1334.91 178.81h13.31M1328.25 158.84l13.31-3.32M1328.25 198.77l13.31 3.33"/><path class="cls-10" d="M1281.89 641.92a13.31 13.31 0 1 1 0-26.61v-26.62a39.93 39.93 0 1 0 28.24 68.17L1291.3 638a13.27 13.27 0 0 1-9.41 3.92z" transform="translate(279.08 -579.58)"/><path class="cls-1" d="M1291.3 619.21l18.83-18.83a39.83 39.83 0 0 0-28.24-11.69v26.62a13.27 13.27 0 0 1 9.41 3.9z" transform="translate(279.08 -579.58)"/><path class="cls-14" d="M1310.13 600.38l-18.83 18.83a13.3 13.3 0 0 1 0 18.82l18.83 18.83a39.95 39.95 0 0 0 0-56.48z" transform="translate(279.08 -579.58)"/><circle class="cls-6" cx="1560.97" cy="49.04" r="39.93"/><circle class="cls-6" cx="1560.97" cy="49.04" r="13.31"/><path class="cls-6" d="M1560.97 35.73V9.11M1570.38 39.63l18.83-18.83M1570.38 58.45l18.83 18.83"/><path class="cls-1" d="M-257 927l-20 39.93v13.31a13.3 13.3 0 0 0 13.31 13.31h66.55a13.3 13.3 0 0 0 13.31-13.31v-13.33l-20-39.93H-257z" transform="translate(279.08 -579.58)"/><path class="cls-6" d="M35.36 320.78h6.65M35.36 307.47h6.65M35.36 294.16h6.65M35.36 280.85h6.65M35.36 267.54h6.65M35.36 254.23h6.65M35.36 240.92h6.65"/><circle class="cls-11" cx="48.67" cy="372.07" r="6.66"/><circle class="cls-11" cx="25.37" cy="382.9" r="6.66"/><circle class="cls-11" cx="70.41" cy="387.33" r="6.66"/><path class="cls-11" d="M18.72 400.64"/><path class="cls-6" d="M28.7 227.61h39.93"/><path class="cls-6" d="M-243.72 900.36v-93.17h26.62v93.17l33.28 66.55v13.31a13.3 13.3 0 0 1-13.31 13.31h-66.55A13.3 13.3 0 0 1-277 980.22v-13.31z" transform="translate(279.08 -579.58)"/><path class="cls-6" d="M22.05 347.4h53.24"/><path class="cls-14" d="M1543.7 913.67a53.24 53.24 0 1 0 92.12 0h-92.12z" transform="translate(279.08 -579.58)"/><path class="cls-6" d="M1603.07 888.8v-94.92h-26.62v94.92a53.24 53.24 0 1 0 26.62 0z" transform="translate(279.08 -579.58)"/><path class="cls-6" d="M1848.87 214.3h39.93M1855.53 294.16h6.65M1855.53 280.85h6.65M1855.53 267.54h6.65M1855.53 254.23h6.65M1855.53 240.92h6.65M1855.53 227.61h6.65M1822.78 334.09h92.12"/><circle class="cls-11" cx="1848.87" cy="367.37" r="6.66"/><circle class="cls-11" cx="1875.49" cy="380.68" r="6.66"/><circle class="cls-11" cx="1888.8" cy="354.06" r="6.66"/><path class="cls-11" d="M1828.91 360.71"/><path class="cls-14" d="M-157.21 993.53c-13.31-44.37-16.64-119.79-10-213h20c6.64 93.21 3.31 168.63-10 213z" transform="translate(279.08 -579.58)"/><path class="cls-6" d="M95.25 214.3v66.55M95.25 214.3h13.31"/><path class="cls-6" d="M-157.21 993.53c-13.31-44.37-16.64-119.79-10-213h20c6.64 93.21 3.31 168.63-10 213z" transform="translate(279.08 -579.58)"/><path class="cls-6" d="M121.87 200.99v-13.31M108.59 294.16h23.26M115.72 387.33h12.31"/><path class="cls-8" d="M1255.33 716.81v-6.66l-13.93-3a32.7 32.7 0 0 0-1.23-4.54l10.58-9.56-3.33-5.76-13.57 4.39a33.5 33.5 0 0 0-3.32-3.32l4.39-13.57-5.76-3.33-9.56 10.58a33.13 33.13 0 0 0-4.54-1.23l-3-13.93h-6.66l-3 13.93a33.13 33.13 0 0 0-4.54 1.23l-9.56-10.58-5.76 3.33 4.39 13.57a33.5 33.5 0 0 0-3.32 3.32l-13.57-4.39-3.33 5.76 10.58 9.56a33.07 33.07 0 0 0-1.23 4.54l-13.93 3v6.66l13.93 3a33 33 0 0 0 1.23 4.54l-10.58 9.56 3.33 5.76 13.57-4.39a33.29 33.29 0 0 0 3.31 3.32l-4.39 13.58 5.77 3.32 9.56-10.58a32.6 32.6 0 0 0 4.54 1.23l3 13.93h6.66l3-13.93a32.6 32.6 0 0 0 4.54-1.23l9.56 10.58 5.76-3.33-4.39-13.57a33 33 0 0 0 3.32-3.32l13.57 4.38 3.33-5.76-10.58-9.56a32.6 32.6 0 0 0 1.23-4.54z" transform="translate(279.08 -579.58)"/><path class="cls-6" d="M1255.33 716.81v-6.66l-13.93-3a32.7 32.7 0 0 0-1.23-4.54l10.58-9.56-3.33-5.76-13.57 4.39a33.5 33.5 0 0 0-3.32-3.32l4.39-13.57-5.76-3.33-9.56 10.58a33.13 33.13 0 0 0-4.54-1.23l-3-13.93h-6.66l-3 13.93a33.13 33.13 0 0 0-4.54 1.23l-9.56-10.58-5.76 3.33 4.39 13.57a33.5 33.5 0 0 0-3.32 3.32l-13.57-4.39-3.33 5.76 10.58 9.56a33.07 33.07 0 0 0-1.23 4.54l-13.93 3v6.66l13.93 3a33 33 0 0 0 1.23 4.54l-10.58 9.56 3.33 5.76 13.57-4.39a33.29 33.29 0 0 0 3.31 3.32l-4.39 13.58 5.77 3.32 9.56-10.58a32.6 32.6 0 0 0 4.54 1.23l3 13.93h6.66l3-13.93a32.6 32.6 0 0 0 4.54-1.23l9.56 10.58 5.76-3.33-4.39-13.57a33 33 0 0 0 3.32-3.32l13.57 4.38 3.33-5.76-10.58-9.56a32.6 32.6 0 0 0 1.23-4.54z" transform="translate(279.08 -579.58)"/><circle class="cls-15" cx="1487.82" cy="133.9" r="13.31"/><path class="cls-4" d="M1230.39 807.19H1110.6a26.6 26.6 0 0 0-26.6 26.62v13.31h53.24v-13.31a26.51 26.51 0 0 0-3.58-13.31h73.72a26.51 26.51 0 0 0-3.58 13.31v13.31h53.2v-13.31a26.61 26.61 0 0 0-26.61-26.62z" transform="translate(279.08 -579.58)"/><path class="cls-4" d="M1509.47 387.33h-133.1v26.62h13.31v-13.31h119.79v13.31h13.31v-26.62h-13.31z"/><path class="cls-4" d="M1509.47 280.85h-119.79l-13.31 106.48h146.41l-13.31-106.48z"/><circle class="cls-16" cx="1449.57" cy="334.09" r="39.93"/><path class="cls-6" d="M1509.47 280.85h-119.79l-13.31 106.48h146.41l-13.31-106.48z"/><circle class="cls-6" cx="1449.57" cy="334.09" r="39.93"/><path class="cls-6" d="M1472.87 350.73l11.18 11.19"/><circle class="cls-6" cx="1449.57" cy="334.09" r="6.66"/><path class="cls-6" d="M1429.61 267.54v13.31M1469.54 267.54v13.31"/><path class="cls-6" d="M1230.39 807.19H1110.6a26.6 26.6 0 0 0-26.6 26.62v13.31h53.24v-13.31a26.51 26.51 0 0 0-3.58-13.31h73.72a26.51 26.51 0 0 0-3.58 13.31v13.31h53.2v-13.31a26.61 26.61 0 0 0-26.61-26.62z" transform="translate(279.08 -579.58)"/><path class="cls-6" d="M1363.06 254.23h26.62M1402.99 254.23h13.31M1482.85 254.23h13.31M1509.47 254.23h26.62M1449.57 207.65v-13.31M1436.26 214.3l-3.32-13.31M1462.88 214.3l3.33-13.31M1509.47 387.33h-133.1v26.62h13.31v-13.31h119.79v13.31h13.31v-26.62h-13.31z"/><path class="cls-12" d="M464.75 135.18h13.31v13.31h-13.31z"/><circle class="cls-12" cx="471.41" cy="68.63" r="66.55"/><path class="cls-12" d="M458.1 148.49h26.62v66.55H458.1z"/><circle class="cls-10" cx="471.41" cy="68.63" r="53.24"/><path class="cls-16" d="M232.26 651.06v-5.69l-11.94-2.57a27.74 27.74 0 0 0-1.06-3.89l9.07-8.19-2.85-4.93-11.64 3.75a28.6 28.6 0 0 0-2.84-2.84l3.76-11.64-4.95-2.85-8.19 9.06a29.56 29.56 0 0 0-3.89-1l-2.55-11.94h-5.71l-2.55 11.94a29.56 29.56 0 0 0-3.89 1l-8.19-9.06-4.95 2.85 3.76 11.64a28.6 28.6 0 0 0-2.84 2.84l-11.64-3.75-2.86 4.93 9.07 8.19a28.19 28.19 0 0 0-1.05 3.89l-11.94 2.57v5.69l11.94 2.57a28 28 0 0 0 1.05 3.89l-9.07 8.2 2.86 4.93 11.64-3.75a28.57 28.57 0 0 0 2.84 2.84l-3.76 11.64 4.95 2.84 8.19-9.06a28.92 28.92 0 0 0 3.89 1l2.55 11.94h5.71l2.55-11.94a28.92 28.92 0 0 0 3.89-1l8.19 9.06 4.95-2.85-3.76-11.64a28.28 28.28 0 0 0 2.85-2.84l11.63 3.75 2.85-4.93-9.07-8.19a27.62 27.62 0 0 0 1.06-3.89z" transform="translate(279.08 -579.58)"/><path class="cls-6" d="M232.26 651.06v-5.69l-11.94-2.57a27.74 27.74 0 0 0-1.06-3.89l9.07-8.19-2.85-4.93-11.64 3.75a28.6 28.6 0 0 0-2.84-2.84l3.76-11.64-4.95-2.85-8.19 9.06a29.56 29.56 0 0 0-3.89-1l-2.55-11.94h-5.71l-2.55 11.94a29.56 29.56 0 0 0-3.89 1l-8.19-9.06-4.95 2.85 3.76 11.64a28.6 28.6 0 0 0-2.84 2.84l-11.64-3.75-2.86 4.93 9.07 8.19a28.19 28.19 0 0 0-1.05 3.89l-11.94 2.57v5.69l11.94 2.57a28 28 0 0 0 1.05 3.89l-9.07 8.2 2.86 4.93 11.64-3.75a28.57 28.57 0 0 0 2.84 2.84l-3.76 11.64 4.95 2.84 8.19-9.06a28.92 28.92 0 0 0 3.89 1l2.55 11.94h5.71l2.55-11.94a28.92 28.92 0 0 0 3.89-1l8.19 9.06 4.95-2.85-3.76-11.64a28.28 28.28 0 0 0 2.85-2.84l11.63 3.75 2.85-4.93-9.07-8.19a27.62 27.62 0 0 0 1.06-3.89z" transform="translate(279.08 -579.58)"/><circle class="cls-10" cx="471.41" cy="68.63" r="13.31"/><circle class="cls-6" cx="471.41" cy="68.63" r="13.31"/><circle class="cls-6" cx="471.41" cy="68.63" r="53.24"/><circle class="cls-6" cx="471.41" cy="68.63" r="66.55"/><path class="cls-6" d="M458.1 148.49h26.62v66.55H458.1zM464.75 148.49v-13.31M478.06 148.49v-13.31M471.09 201.73"/><path class="cls-7" d="M471.09 188.42v-19.96"/><path class="cls-6" d="M471.09 161.8"/><path class="cls-8" d="M-2.39 900.36c0 21.63 20 31.17 20 53.24C17.58 980.22-9 993.53-9 993.53V953.6h-26.66v39.93s-26.62-13.31-26.62-39.93c0-22.07 20-31.61 20-53.24V793.88c0-21.63-20-31.17-20-53.24 0-26.62 26.62-39.93 26.62-39.93v39.93H-9v-39.93S17.58 714 17.58 740.64c0 22.07-20 31.61-20 53.24v106.48z" transform="translate(279.08 -579.58)"/><circle class="cls-2" cx="256.73" cy="187.68" r="6.66"/><circle class="cls-2" cx="256.73" cy="347.4" r="6.66"/><path class="cls-2" d="M-2.39 900.36c0 21.63 20 31.17 20 53.24C17.58 980.22-9 993.53-9 993.53V953.6h-26.66v39.93s-26.62-13.31-26.62-39.93c0-22.07 20-31.61 20-53.24V793.88c0-21.63-20-31.17-20-53.24 0-26.62 26.62-39.93 26.62-39.93v39.93H-9v-39.93S17.58 714 17.58 740.64c0 22.07-20 31.61-20 53.24v106.48z" transform="translate(279.08 -579.58)"/><path class="cls-2" d="M256.73 214.3v106.48"/><path class="cls-10" d="M-120.47 980.22a13.3 13.3 0 0 0 13.31 13.31h13.31a13.3 13.3 0 0 0 13.31-13.31" transform="translate(279.08 -579.58)"/><path class="cls-10" d="M165.27 280.85h26.62v13.31h-26.62zM158.61 267.54h39.93v13.31h-39.93zM158.61 294.16h39.93v106.48h-39.93z"/><path class="cls-8" d="M175.25 134.44l-3.33 26.62h13.31l-3.33-26.62h-6.65z"/><path class="cls-2" d="M178.58 267.54V161.06M175.25 134.44l-3.33 26.62h13.31l-3.33-26.62h-6.65zM158.61 400.64h39.93M198.54 400.64V294.16M185.23 400.64V294.16M171.92 400.64V294.16M158.61 294.16h39.93M158.61 267.54h39.93v13.31h-39.93zM165.27 280.85v13.31M191.89 280.85v13.31M158.61 294.16v106.48"/><path class="cls-2" d="M-120.47 980.22a13.3 13.3 0 0 0 13.31 13.31h13.31a13.3 13.3 0 0 0 13.31-13.31" transform="translate(279.08 -579.58)"/><path class="cls-8" d="M1261.93 993.53v-79.86a39.91 39.91 0 0 1 39.93-39.93h79.86a39.91 39.91 0 0 1 39.93 39.93v79.86" transform="translate(279.08 -579.58)"/><path class="cls-17" d="M1654.14 334.09v-39.93h-13.31v39.93h-39.93v-39.93h-13.31v39.93l-19.96 26.62v53.24h106.48v-53.24l-19.97-26.62z"/><path class="cls-9" d="M1361.75 687.4h-.38c-3.93-8.3-10-13.31-19.59-13.31s-15.66 5-19.59 13.31h-.38c-30.25 0-39.93 29.77-39.93 66.55h119.79c.01-36.78-9.67-66.55-39.92-66.55z" transform="translate(279.08 -579.58)"/><circle class="cls-3" cx="1620.87" cy="147.75" r="13.31"/><path class="cls-9" d="M1554.32 174.37h133.1v13.31h-133.1z"/><path class="cls-2" d="M1554.32 174.37h133.1v13.31h-133.1z"/><circle class="cls-2" cx="1620.87" cy="147.75" r="13.31"/><path class="cls-2" d="M1387.9 767.25a53.24 53.24 0 1 1-92.22 0" transform="translate(279.08 -579.58)"/><path class="cls-2" d="M1674.11 214.3v-26.62M1567.63 214.3v-26.62M1607.56 294.16v-26.62M1634.18 294.16v-28.3M1567.63 334.09v79.86M1674.11 334.09v79.86"/><path class="cls-2" d="M1261.93 993.53v-79.86a39.91 39.91 0 0 1 39.93-39.93h79.86a39.91 39.91 0 0 1 39.93 39.93v79.86" transform="translate(279.08 -579.58)"/><path class="cls-2" d="M1587.59 294.16v39.93M1600.9 294.16v39.93M1640.83 334.09v-39.93M1654.14 334.09v-39.93M1587.59 334.09h66.55M1654.14 334.09l19.97 26.62M1587.59 334.09l-19.96 26.62M1620.87 374.02h26.62M1627.52 374.02v-13.31M1640.83 374.02v-13.31"/><path class="cls-2" d="M1368.41 754c0-41.08 0-79.86-26.62-79.86s-26.62 38.78-26.62 79.86M1321.82 687.4c-30.25 0-39.93 29.77-39.93 66.55M1401.68 754c0-36.79-9.68-66.55-39.93-66.55" transform="translate(279.08 -579.58)"/><path class="cls-2" d="M1541 413.95h159.73"/><path class="cls-5" d="M1398.03 175.11h-13.31l-6.66-13.31h26.62l-6.65 13.31z"/><path class="cls-8" d="M1371.41 121.87h39.93v39.93h-39.93z"/><path class="cls-3" d="M1132.26 701.45c0-16 6.66-17 17.68-28.9a53.24 53.24 0 1 0-75.29 0c11 11.86 17.68 12.93 17.68 28.9" transform="translate(279.08 -579.58)"/><path class="cls-6" d="M1371.41 121.87h39.93v39.93h-39.93z"/><path class="cls-6" d="M1132.26 701.45c0-16 6.66-17 17.68-28.9a53.24 53.24 0 1 0-75.29 0c11 11.86 17.68 12.93 17.68 28.9" transform="translate(279.08 -579.58)"/><path class="cls-6" d="M1378.06 42.01h26.62M1404.68 42.01l-13.31 79.86M1391.37 121.87l-13.31-79.86M1371.41 135.18h39.93"/><path class="cls-15" d="M1371.41 148.49h39.93"/><path class="cls-6" d="M1398.03 175.11h-13.31l-6.66-13.31h26.62l-6.65 13.31z"/><path class="cls-11" d="M1072.36 634.9a39.93 39.93 0 0 1 39.93-39.9" transform="translate(279.08 -579.58)"/><path class="cls-1" d="M662.73 118.91V92.28H556.25v66.56h26.62v13.31l13.31-13.31h13.31v-39.93h53.24z"/><path class="cls-14" d="M662.73 118.91v39.93h-53.24v26.62h66.55l13.31 13.31v-13.31h26.62v-66.55h-53.24z"/><path class="cls-16" d="M609.49 118.9h53.24v39.93h-53.24z"/><path class="cls-6" d="M556.25 92.28v66.56h26.62v13.31l13.31-13.31h66.55V92.28H556.25z"/><path class="cls-6" d="M715.97 118.91v66.55h-26.62v13.31l-13.31-13.31h-66.55v-66.55h106.48z"/></svg>