<svg id="Layer_1" data-name="Layer 1" xmlns="http://www.w3.org/2000/svg" viewBox="0 0 1924.16 416.03"><defs><style>.cls-1{fill:#8dc63f;}.cls-11,.cls-2,.cls-6,.cls-7{fill:none;}.cls-13,.cls-2{stroke:#000;}.cls-11,.cls-13,.cls-15,.cls-2,.cls-6,.cls-7{stroke-linecap:round;stroke-linejoin:round;stroke-width:4.16px;}.cls-3{fill:#fecf64;}.cls-4{fill:#f2665e;}.cls-5{fill:#929497;}.cls-15,.cls-6,.cls-7{stroke:#020210;}.cls-7{stroke-dasharray:0 8.32;}.cls-8{fill:#e6e7e8;}.cls-9{fill:#feb611;}.cls-10{fill:#569ea4;}.cls-11{stroke:#fff;}.cls-12{fill:#58595b;}.cls-13,.cls-15,.cls-16{fill:#fff;}.cls-14{fill:#a87bb5;}.cls-17{fill:#f68d3d;}</style></defs><title>error-image</title><path class="cls-1" d="M34.26,687.4V993.53H340.39Zm39.93,93.17,173,173h-173v-173Z" transform="translate(279.08 -579.58)"/><path class="cls-2" d="M34.26,687.4V993.53H340.39Zm39.93,93.17,173,173h-173v-173Z" transform="translate(279.08 -579.58)"/><line class="cls-2" x1="566.23" y1="407.3" x2="566.23" y2="413.95"/><line class="cls-2" x1="552.92" y1="407.3" x2="552.92" y2="413.95"/><line class="cls-2" x1="539.61" y1="407.3" x2="539.61" y2="413.95"/><line class="cls-2" x1="526.3" y1="407.3" x2="526.3" y2="413.95"/><line class="cls-2" x1="512.99" y1="407.3" x2="512.99" y2="413.95"/><line class="cls-2" x1="499.68" y1="407.3" x2="499.68" y2="413.95"/><line class="cls-2" x1="486.37" y1="407.3" x2="486.37" y2="413.95"/><line class="cls-2" x1="473.06" y1="407.3" x2="473.06" y2="413.95"/><line class="cls-2" x1="459.75" y1="407.3" x2="459.75" y2="413.95"/><line class="cls-2" x1="446.44" y1="407.3" x2="446.44" y2="413.95"/><line class="cls-2" x1="433.13" y1="407.3" x2="433.13" y2="413.95"/><line class="cls-2" x1="419.82" y1="407.3" x2="419.82" y2="413.95"/><line class="cls-2" x1="406.51" y1="407.3" x2="406.51" y2="413.95"/><line class="cls-2" x1="393.2" y1="407.3" x2="393.2" y2="413.95"/><line class="cls-2" x1="379.89" y1="407.3" x2="379.89" y2="413.95"/><line class="cls-2" x1="366.58" y1="407.3" x2="366.58" y2="413.95"/><line class="cls-2" x1="353.27" y1="407.3" x2="353.27" y2="413.95"/><line class="cls-2" x1="339.96" y1="407.3" x2="339.96" y2="413.95"/><rect class="cls-3" x="246.01" y="963.04" width="13.31" height="26.62" transform="translate(-337.34 -114.88) rotate(-45.01)"/><rect class="cls-3" x="290.78" y="878.33" width="93.17" height="26.62" transform="translate(-252.63 -79.79) rotate(-45.01)"/><rect class="cls-4" x="247.62" y="934.8" width="66.56" height="26.62" transform="translate(-309.07 -103.24) rotate(-45)"/><polygon class="cls-5" points="701.15 274.41 644.68 217.94 616.45 246.18 682.33 312.06 691.74 302.65 701.15 274.41"/><rect class="cls-6" x="222.62" y="906.56" width="173.03" height="26.62" transform="translate(-280.86 -91.49) rotate(-45.01)"/><polygon class="cls-6" points="701.15 274.41 644.68 217.94 616.45 246.18 682.33 312.06 691.74 302.65 701.15 274.41"/><line class="cls-6" x1="691.74" y1="302.65" x2="625.86" y2="236.77"/><line class="cls-6" x1="572.43" y1="335.59" x2="591.25" y2="354.41"/><line class="cls-6" x1="527.03" y1="382.65" x2="545.86" y2="401.47"/><line class="cls-7" x1="573.87" y1="354.19" x2="545.64" y2="382.43"/><path class="cls-8" d="M377.19,957.52l16.29,16.28a26.58,26.58,0,0,0-32.57-32.57l-89.78-89.78a26.58,26.58,0,0,0-32.57-32.57l16.29,16.29L236,854l-16.29-16.29a26.58,26.58,0,0,0,32.57,32.57l89.78,89.78a26.58,26.58,0,0,0,32.57,32.57l-16.29-16.29Z" transform="translate(279.08 -579.58)"/><path class="cls-6" d="M377.19,957.52l16.29,16.28a26.58,26.58,0,0,0-32.57-32.57l-89.78-89.78a26.58,26.58,0,0,0-32.57-32.57l16.29,16.29L236,854l-16.29-16.29a26.58,26.58,0,0,0,32.57,32.57l89.78,89.78a26.58,26.58,0,0,0,32.57,32.57l-16.29-16.29Z" transform="translate(279.08 -579.58)"/><rect class="cls-1" x="1715.77" y="81.2" width="39.93" height="332.76"/><rect class="cls-6" x="1715.77" y="81.2" width="39.93" height="332.76"/><line class="cls-6" x1="1749.04" y1="107.82" x2="1755.7" y2="107.82"/><line class="cls-6" x1="1749.04" y1="121.13" x2="1755.7" y2="121.13"/><line class="cls-6" x1="1749.04" y1="134.44" x2="1755.7" y2="134.44"/><line class="cls-6" x1="1749.04" y1="147.75" x2="1755.7" y2="147.75"/><line class="cls-6" x1="1749.04" y1="161.06" x2="1755.7" y2="161.06"/><line class="cls-6" x1="1749.04" y1="174.37" x2="1755.7" y2="174.37"/><line class="cls-6" x1="1749.04" y1="187.68" x2="1755.7" y2="187.68"/><line class="cls-6" x1="1749.04" y1="200.99" x2="1755.7" y2="200.99"/><line class="cls-6" x1="1749.04" y1="214.3" x2="1755.7" y2="214.3"/><line class="cls-6" x1="1749.04" y1="227.61" x2="1755.7" y2="227.61"/><line class="cls-6" x1="1749.04" y1="240.92" x2="1755.7" y2="240.92"/><line class="cls-6" x1="1749.04" y1="254.23" x2="1755.7" y2="254.23"/><line class="cls-6" x1="1749.04" y1="267.54" x2="1755.7" y2="267.54"/><line class="cls-6" x1="1749.04" y1="280.85" x2="1755.7" y2="280.85"/><line class="cls-6" x1="1749.04" y1="294.16" x2="1755.7" y2="294.16"/><line class="cls-6" x1="1749.04" y1="307.47" x2="1755.7" y2="307.47"/><line class="cls-6" x1="1749.04" y1="320.78" x2="1755.7" y2="320.78"/><line class="cls-6" x1="1749.04" y1="334.09" x2="1755.7" y2="334.09"/><line class="cls-6" x1="1749.04" y1="347.4" x2="1755.7" y2="347.4"/><line class="cls-6" x1="1749.04" y1="360.71" x2="1755.7" y2="360.71"/><line class="cls-6" x1="1749.04" y1="374.02" x2="1755.7" y2="374.02"/><line class="cls-6" x1="1749.04" y1="387.33" x2="1755.7" y2="387.33"/><rect class="cls-9" x="1772.34" y="161.06" width="26.62" height="239.58"/><rect class="cls-6" x="1772.34" y="161.06" width="26.62" height="252.89"/><polygon class="cls-6" points="1785.65 134.44 1772.34 161.06 1798.96 161.06 1785.65 134.44"/><line class="cls-6" x1="1785.65" y1="161.06" x2="1785.65" y2="400.64"/><line class="cls-6" x1="1772.34" y1="400.64" x2="1798.96" y2="400.64"/><line class="cls-6" x1="1778.99" y1="147.75" x2="1792.3" y2="147.75"/><rect class="cls-10" x="1208.46" y="307.47" width="186.34" height="106.48"/><rect class="cls-2" x="1208.46" y="307.47" width="186.34" height="106.48"/><line class="cls-2" x1="1208.46" y1="307.47" x2="1278.34" y2="360.71"/><line class="cls-2" x1="1324.93" y1="360.71" x2="1394.81" y2="307.47"/><path class="cls-2" d="M999.26,940.29l14,10.65a16.29,16.29,0,0,0,18.64,0l14-10.65" transform="translate(279.08 -579.58)"/><line class="cls-2" x1="1394.81" y1="413.95" x2="1324.93" y2="360.71"/><line class="cls-2" x1="1278.34" y1="360.71" x2="1208.46" y2="413.95"/><rect class="cls-5" x="326.65" y="267.54" width="79.86" height="146.41" rx="13.31" ry="13.31"/><rect class="cls-10" x="326.65" y="294.16" width="79.86" height="93.17"/><line class="cls-11" x1="333.3" y1="387.33" x2="372.4" y2="348.23"/><line class="cls-11" x1="406.51" y1="294.16" x2="328.31" y2="372.36"/><line class="cls-11" x1="367.41" y1="387.33" x2="405.68" y2="349.07"/><line class="cls-11" x1="362" y1="294.16" x2="340.17" y2="316"/><rect class="cls-6" x="326.65" y="267.54" width="79.86" height="146.41" rx="13.31" ry="13.31"/><line class="cls-6" x1="406.51" y1="387.33" x2="326.65" y2="387.33"/><line class="cls-6" x1="326.65" y1="294.16" x2="406.51" y2="294.16"/><line class="cls-6" x1="366.58" y1="280.85" x2="379.89" y2="280.85"/><line class="cls-6" x1="353.27" y1="280.85" x2="353.27" y2="280.85"/><line class="cls-6" x1="359.92" y1="400.64" x2="373.23" y2="400.64"/><path class="cls-12" d="M463.53,966.91V674.09a13.3,13.3,0,0,1,13.31-13.31H889.45a13.3,13.3,0,0,1,13.31,13.31V966.91" transform="translate(279.08 -579.58)"/><path class="cls-8" d="M476.84,966.91H410.28v0a26.6,26.6,0,0,0,26.62,26.62H929.38A26.61,26.61,0,0,0,956,966.91v0H889.45" transform="translate(279.08 -579.58)"/><rect class="cls-13" x="755.92" y="94.51" width="412.62" height="279.51"/><line class="cls-2" x1="1181.84" y1="387.33" x2="742.61" y2="387.33"/><path class="cls-2" d="M463.53,966.91V674.09a13.3,13.3,0,0,1,13.31-13.31H889.45a13.3,13.3,0,0,1,13.31,13.31V966.91" transform="translate(279.08 -579.58)"/><rect class="cls-14" x="755.92" y="225.39" width="133.1" height="106.48"/><path class="cls-2" d="M476.84,966.91H410.28a26.6,26.6,0,0,0,26.62,26.62H929.38A26.61,26.61,0,0,0,956,966.91H889.45" transform="translate(279.08 -579.58)"/><rect class="cls-2" x="915.64" y="387.33" width="93.17" height="13.31"/><line class="cls-2" x1="755.92" y1="225.39" x2="755.92" y2="331.88"/><polygon class="cls-8" points="1301.63 152.19 1288.32 145.53 1288.32 212.08 1301.63 205.43 1301.63 152.19"/><rect class="cls-12" x="928.95" y="158.84" width="13.31" height="39.93"/><rect class="cls-12" x="1275.01" y="65.67" width="13.31" height="226.27"/><polygon class="cls-8" points="1275.01 72.33 1275.01 285.29 1088.67 212.08 1088.67 145.53 1275.01 72.33"/><polygon class="cls-8" points="995.5 212.08 1048.74 212.08 1028.78 291.95 975.53 291.95 995.5 212.08"/><line class="cls-2" x1="1088.67" y1="212.08" x2="1275.01" y2="285.29"/><line class="cls-2" x1="1088.67" y1="145.53" x2="1275.01" y2="72.33"/><line class="cls-2" x1="1048.74" y1="212.08" x2="1028.77" y2="291.95"/><line class="cls-2" x1="1275.01" y1="72.33" x2="1275.01" y2="285.29"/><rect class="cls-2" x="1275.01" y="65.67" width="13.31" height="226.27"/><polygon class="cls-2" points="1301.63 152.19 1288.32 145.53 1288.32 212.08 1301.63 205.43 1301.63 152.19"/><line class="cls-2" x1="942.26" y1="178.81" x2="928.95" y2="178.81"/><path class="cls-3" d="M636.56,898.15h13.31c13.31,0,26.62,13.31,39.93,13.31H763a13.31,13.31,0,1,0,0-26.62h6.66a13.31,13.31,0,0,0,0-26.62h6.66a13.31,13.31,0,0,0,0-26.62H783A13.31,13.31,0,0,0,783,805H716.42V791.66H689.8c-26.62,0-26.62,26.62-39.93,26.62H636.56" transform="translate(279.08 -579.58)"/><polyline class="cls-2" points="755.91 331.88 889.02 331.88 889.02 225.4 875.71 225.4"/><rect class="cls-2" x="889.02" y="225.39" width="26.62" height="106.48"/><line class="cls-2" x1="889.02" y1="252.01" x2="915.64" y2="252.01"/><line class="cls-2" x1="902.33" y1="265.33" x2="902.33" y2="278.64"/><line class="cls-2" x1="875.71" y1="225.39" x2="755.92" y2="225.39"/><path class="cls-2" d="M636.56,898.15h13.31c13.31,0,26.62,13.31,39.93,13.31H763a13.31,13.31,0,1,0,0-26.62h6.66a13.31,13.31,0,0,0,0-26.62h6.66a13.31,13.31,0,0,0,0-26.62H783A13.31,13.31,0,0,0,783,805H713.09" transform="translate(279.08 -579.58)"/><path class="cls-2" d="M689.8,791.66c-26.62,0-26.62,26.62-39.93,26.62" transform="translate(279.08 -579.58)"/><line class="cls-2" x1="915.64" y1="238.7" x2="928.95" y2="238.7"/><line class="cls-2" x1="992.17" y1="225.4" x2="995.5" y2="212.08"/><rect class="cls-1" x="942.26" y="145.53" width="146.41" height="66.55"/><rect class="cls-2" x="942.26" y="145.53" width="146.41" height="66.55"/><rect class="cls-2" x="928.95" y="158.84" width="13.31" height="39.93"/><line class="cls-2" x1="1008.81" y1="158.84" x2="1008.81" y2="198.77"/><line class="cls-2" x1="995.5" y1="158.84" x2="995.5" y2="198.77"/><line class="cls-2" x1="1022.12" y1="158.84" x2="1022.12" y2="198.77"/><line class="cls-2" x1="1035.43" y1="158.84" x2="1035.43" y2="198.77"/><line class="cls-2" x1="1088.67" y1="178.81" x2="1275.01" y2="178.81"/><line class="cls-2" x1="1334.91" y1="178.81" x2="1348.22" y2="178.81"/><line class="cls-2" x1="1328.25" y1="158.84" x2="1341.56" y2="155.52"/><line class="cls-2" x1="1328.25" y1="198.77" x2="1341.56" y2="202.1"/><path class="cls-10" d="M1281.89,641.92a13.31,13.31,0,1,1,0-26.61V588.69a39.93,39.93,0,1,0,28.24,68.17L1291.3,638A13.27,13.27,0,0,1,1281.89,641.92Z" transform="translate(279.08 -579.58)"/><path class="cls-1" d="M1291.3,619.21l18.83-18.83a39.83,39.83,0,0,0-28.24-11.69v26.62A13.27,13.27,0,0,1,1291.3,619.21Z" transform="translate(279.08 -579.58)"/><path class="cls-14" d="M1310.13,600.38l-18.83,18.83a13.3,13.3,0,0,1,0,18.82l18.83,18.83A39.95,39.95,0,0,0,1310.13,600.38Z" transform="translate(279.08 -579.58)"/><circle class="cls-6" cx="1560.97" cy="49.04" r="39.93"/><circle class="cls-6" cx="1560.97" cy="49.04" r="13.31"/><line class="cls-6" x1="1560.97" y1="35.73" x2="1560.97" y2="9.11"/><line class="cls-6" x1="1570.38" y1="39.63" x2="1589.21" y2="20.8"/><line class="cls-6" x1="1570.38" y1="58.45" x2="1589.21" y2="77.28"/><path class="cls-1" d="M-257,927l-20,39.93v13.31a13.3,13.3,0,0,0,13.31,13.31h66.55a13.3,13.3,0,0,0,13.31-13.31V966.91l-20-39.93H-257Z" transform="translate(279.08 -579.58)"/><line class="cls-6" x1="35.36" y1="320.78" x2="42.01" y2="320.78"/><line class="cls-6" x1="35.36" y1="307.47" x2="42.01" y2="307.47"/><line class="cls-6" x1="35.36" y1="294.16" x2="42.01" y2="294.16"/><line class="cls-6" x1="35.36" y1="280.85" x2="42.01" y2="280.85"/><line class="cls-6" x1="35.36" y1="267.54" x2="42.01" y2="267.54"/><line class="cls-6" x1="35.36" y1="254.23" x2="42.01" y2="254.23"/><line class="cls-6" x1="35.36" y1="240.92" x2="42.01" y2="240.92"/><circle class="cls-11" cx="48.67" cy="372.07" r="6.66"/><circle class="cls-11" cx="25.37" cy="382.9" r="6.66"/><circle class="cls-11" cx="70.41" cy="387.33" r="6.66"/><line class="cls-11" x1="35.36" y1="358.76" x2="35.36" y2="358.76"/><line class="cls-11" x1="68.63" y1="365.42" x2="68.63" y2="365.42"/><line class="cls-11" x1="42.01" y1="393.99" x2="42.01" y2="393.99"/><line class="cls-11" x1="53.1" y1="400.64" x2="53.1" y2="400.64"/><line class="cls-11" x1="18.72" y1="400.64" x2="18.72" y2="400.64"/><line class="cls-6" x1="28.7" y1="227.61" x2="68.63" y2="227.61"/><path class="cls-6" d="M-243.72,900.36V807.19h26.62v93.17l33.28,66.55v13.31a13.3,13.3,0,0,1-13.31,13.31h-66.55A13.3,13.3,0,0,1-277,980.22V966.91Z" transform="translate(279.08 -579.58)"/><line class="cls-6" x1="22.05" y1="347.4" x2="75.29" y2="347.4"/><path class="cls-14" d="M1543.7,913.67a53.24,53.24,0,1,0,92.12,0H1543.7Z" transform="translate(279.08 -579.58)"/><path class="cls-6" d="M1603.07,888.8V793.88h-26.62V888.8A53.24,53.24,0,1,0,1603.07,888.8Z" transform="translate(279.08 -579.58)"/><line class="cls-6" x1="1848.87" y1="214.3" x2="1888.8" y2="214.3"/><line class="cls-6" x1="1855.53" y1="294.16" x2="1862.18" y2="294.16"/><line class="cls-6" x1="1855.53" y1="280.85" x2="1862.18" y2="280.85"/><line class="cls-6" x1="1855.53" y1="267.54" x2="1862.18" y2="267.54"/><line class="cls-6" x1="1855.53" y1="254.23" x2="1862.18" y2="254.23"/><line class="cls-6" x1="1855.53" y1="240.92" x2="1862.18" y2="240.92"/><line class="cls-6" x1="1855.53" y1="227.61" x2="1862.18" y2="227.61"/><line class="cls-6" x1="1822.78" y1="334.09" x2="1914.9" y2="334.09"/><circle class="cls-11" cx="1848.87" cy="367.37" r="6.66"/><circle class="cls-11" cx="1875.49" cy="380.68" r="6.66"/><circle class="cls-11" cx="1888.8" cy="354.06" r="6.66"/><line class="cls-11" x1="1855.53" y1="347.4" x2="1855.53" y2="347.4"/><line class="cls-11" x1="1908.77" y1="367.37" x2="1908.77" y2="367.37"/><line class="cls-11" x1="1858.86" y1="395.1" x2="1858.86" y2="395.1"/><line class="cls-11" x1="1895.46" y1="374.02" x2="1895.46" y2="374.02"/><line class="cls-11" x1="1828.91" y1="360.71" x2="1828.91" y2="360.71"/><path class="cls-14" d="M-157.21,993.53c-13.31-44.37-16.64-119.79-10-213h20C-140.57,873.74-143.9,949.16-157.21,993.53Z" transform="translate(279.08 -579.58)"/><line class="cls-6" x1="95.25" y1="214.3" x2="95.25" y2="280.85"/><line class="cls-6" x1="95.25" y1="214.3" x2="108.56" y2="214.3"/><path class="cls-6" d="M-157.21,993.53c-13.31-44.37-16.64-119.79-10-213h20C-140.57,873.74-143.9,949.16-157.21,993.53Z" transform="translate(279.08 -579.58)"/><line class="cls-6" x1="121.87" y1="200.99" x2="121.87" y2="187.68"/><line class="cls-6" x1="108.59" y1="294.16" x2="131.85" y2="294.16"/><line class="cls-6" x1="115.72" y1="387.33" x2="128.03" y2="387.33"/><path class="cls-8" d="M1255.33,716.81v-6.66l-13.93-3a32.7,32.7,0,0,0-1.23-4.54l10.58-9.56-3.33-5.76-13.57,4.39a33.5,33.5,0,0,0-3.32-3.32l4.39-13.57-5.76-3.33-9.56,10.58a33.13,33.13,0,0,0-4.54-1.23l-3-13.93h-6.66l-3,13.93a33.13,33.13,0,0,0-4.54,1.23l-9.56-10.58-5.76,3.33,4.39,13.57a33.5,33.5,0,0,0-3.32,3.32l-13.57-4.39-3.33,5.76,10.58,9.56a33.07,33.07,0,0,0-1.23,4.54l-13.93,3v6.66l13.93,3a33,33,0,0,0,1.23,4.54l-10.58,9.56,3.33,5.76,13.57-4.39a33.29,33.29,0,0,0,3.31,3.32l-4.39,13.58,5.77,3.32,9.56-10.58a32.6,32.6,0,0,0,4.54,1.23l3,13.93h6.66l3-13.93a32.6,32.6,0,0,0,4.54-1.23l9.56,10.58,5.76-3.33-4.39-13.57a33,33,0,0,0,3.32-3.32l13.57,4.38,3.33-5.76-10.58-9.56a32.6,32.6,0,0,0,1.23-4.54Z" transform="translate(279.08 -579.58)"/><path class="cls-6" d="M1255.33,716.81v-6.66l-13.93-3a32.7,32.7,0,0,0-1.23-4.54l10.58-9.56-3.33-5.76-13.57,4.39a33.5,33.5,0,0,0-3.32-3.32l4.39-13.57-5.76-3.33-9.56,10.58a33.13,33.13,0,0,0-4.54-1.23l-3-13.93h-6.66l-3,13.93a33.13,33.13,0,0,0-4.54,1.23l-9.56-10.58-5.76,3.33,4.39,13.57a33.5,33.5,0,0,0-3.32,3.32l-13.57-4.39-3.33,5.76,10.58,9.56a33.07,33.07,0,0,0-1.23,4.54l-13.93,3v6.66l13.93,3a33,33,0,0,0,1.23,4.54l-10.58,9.56,3.33,5.76,13.57-4.39a33.29,33.29,0,0,0,3.31,3.32l-4.39,13.58,5.77,3.32,9.56-10.58a32.6,32.6,0,0,0,4.54,1.23l3,13.93h6.66l3-13.93a32.6,32.6,0,0,0,4.54-1.23l9.56,10.58,5.76-3.33-4.39-13.57a33,33,0,0,0,3.32-3.32l13.57,4.38,3.33-5.76-10.58-9.56a32.6,32.6,0,0,0,1.23-4.54Z" transform="translate(279.08 -579.58)"/><circle class="cls-15" cx="1487.82" cy="133.9" r="13.31"/><path class="cls-4" d="M1230.39,807.19H1110.6A26.6,26.6,0,0,0,1084,833.81v13.31h53.24V833.81a26.51,26.51,0,0,0-3.58-13.31h73.72a26.51,26.51,0,0,0-3.58,13.31v13.31H1257V833.81A26.61,26.61,0,0,0,1230.39,807.19Z" transform="translate(279.08 -579.58)"/><polygon class="cls-4" points="1509.47 387.33 1389.68 387.33 1376.37 387.33 1376.37 400.64 1376.37 413.95 1389.68 413.95 1389.68 400.64 1509.47 400.64 1509.47 413.95 1522.78 413.95 1522.78 400.64 1522.78 387.33 1509.47 387.33"/><polygon class="cls-4" points="1509.47 280.85 1389.68 280.85 1376.37 387.33 1522.78 387.33 1509.47 280.85"/><circle class="cls-16" cx="1449.57" cy="334.09" r="39.93"/><polygon class="cls-6" points="1509.47 280.85 1389.68 280.85 1376.37 387.33 1522.78 387.33 1509.47 280.85"/><circle class="cls-6" cx="1449.57" cy="334.09" r="39.93"/><line class="cls-6" x1="1449.57" y1="307.48" x2="1449.57" y2="307.48"/><line class="cls-6" x1="1449.57" y1="360.71" x2="1449.57" y2="360.71"/><line class="cls-6" x1="1462.88" y1="311.04" x2="1462.88" y2="311.04"/><line class="cls-6" x1="1436.26" y1="357.15" x2="1436.26" y2="357.15"/><line class="cls-6" x1="1426.52" y1="347.4" x2="1426.52" y2="347.4"/><line class="cls-6" x1="1422.95" y1="334.09" x2="1422.95" y2="334.09"/><line class="cls-6" x1="1426.52" y1="320.78" x2="1426.52" y2="320.78"/><line class="cls-6" x1="1436.26" y1="311.04" x2="1436.26" y2="311.04"/><line class="cls-6" x1="1449.57" y1="360.71" x2="1449.57" y2="360.71"/><line class="cls-6" x1="1449.57" y1="307.47" x2="1449.57" y2="307.47"/><line class="cls-6" x1="1472.87" y1="350.73" x2="1484.05" y2="361.92"/><circle class="cls-6" cx="1449.57" cy="334.09" r="6.66"/><line class="cls-6" x1="1429.61" y1="267.54" x2="1429.61" y2="280.85"/><line class="cls-6" x1="1469.54" y1="267.54" x2="1469.54" y2="280.85"/><path class="cls-6" d="M1230.39,807.19H1110.6A26.6,26.6,0,0,0,1084,833.81v13.31h53.24V833.81a26.51,26.51,0,0,0-3.58-13.31h73.72a26.51,26.51,0,0,0-3.58,13.31v13.31H1257V833.81A26.61,26.61,0,0,0,1230.39,807.19Z" transform="translate(279.08 -579.58)"/><line class="cls-6" x1="1363.06" y1="254.23" x2="1389.68" y2="254.23"/><line class="cls-6" x1="1402.99" y1="254.23" x2="1416.3" y2="254.23"/><line class="cls-6" x1="1482.85" y1="254.23" x2="1496.16" y2="254.23"/><line class="cls-6" x1="1509.47" y1="254.23" x2="1536.09" y2="254.23"/><line class="cls-6" x1="1449.57" y1="207.65" x2="1449.57" y2="194.34"/><line class="cls-6" x1="1436.26" y1="214.3" x2="1432.94" y2="200.99"/><line class="cls-6" x1="1462.88" y1="214.3" x2="1466.21" y2="200.99"/><polygon class="cls-6" points="1509.47 387.33 1389.68 387.33 1376.37 387.33 1376.37 400.64 1376.37 413.95 1389.68 413.95 1389.68 400.64 1509.47 400.64 1509.47 413.95 1522.78 413.95 1522.78 400.64 1522.78 387.33 1509.47 387.33"/><rect class="cls-12" x="464.75" y="135.18" width="13.31" height="13.31"/><circle class="cls-12" cx="471.41" cy="68.63" r="66.55"/><rect class="cls-12" x="458.1" y="148.49" width="26.62" height="66.55"/><circle class="cls-10" cx="471.41" cy="68.63" r="53.24"/><path class="cls-16" d="M232.26,651.06v-5.69l-11.94-2.57a27.74,27.74,0,0,0-1.06-3.89l9.07-8.19-2.85-4.93-11.64,3.75a28.6,28.6,0,0,0-2.84-2.84l3.76-11.64-4.95-2.85-8.19,9.06a29.56,29.56,0,0,0-3.89-1l-2.55-11.94h-5.71l-2.55,11.94a29.56,29.56,0,0,0-3.89,1l-8.19-9.06-4.95,2.85,3.76,11.64a28.6,28.6,0,0,0-2.84,2.84l-11.64-3.75-2.86,4.93,9.07,8.19a28.19,28.19,0,0,0-1.05,3.89l-11.94,2.57v5.69l11.94,2.57a28,28,0,0,0,1.05,3.89l-9.07,8.2,2.86,4.93,11.64-3.75a28.57,28.57,0,0,0,2.84,2.84l-3.76,11.64,4.95,2.84,8.19-9.06a28.92,28.92,0,0,0,3.89,1l2.55,11.94h5.71l2.55-11.94a28.92,28.92,0,0,0,3.89-1l8.19,9.06,4.95-2.85L211,669.73a28.28,28.28,0,0,0,2.85-2.84l11.63,3.75,2.85-4.93-9.07-8.19a27.62,27.62,0,0,0,1.06-3.89Z" transform="translate(279.08 -579.58)"/><path class="cls-6" d="M232.26,651.06v-5.69l-11.94-2.57a27.74,27.74,0,0,0-1.06-3.89l9.07-8.19-2.85-4.93-11.64,3.75a28.6,28.6,0,0,0-2.84-2.84l3.76-11.64-4.95-2.85-8.19,9.06a29.56,29.56,0,0,0-3.89-1l-2.55-11.94h-5.71l-2.55,11.94a29.56,29.56,0,0,0-3.89,1l-8.19-9.06-4.95,2.85,3.76,11.64a28.6,28.6,0,0,0-2.84,2.84l-11.64-3.75-2.86,4.93,9.07,8.19a28.19,28.19,0,0,0-1.05,3.89l-11.94,2.57v5.69l11.94,2.57a28,28,0,0,0,1.05,3.89l-9.07,8.2,2.86,4.93,11.64-3.75a28.57,28.57,0,0,0,2.84,2.84l-3.76,11.64,4.95,2.84,8.19-9.06a28.92,28.92,0,0,0,3.89,1l2.55,11.94h5.71l2.55-11.94a28.92,28.92,0,0,0,3.89-1l8.19,9.06,4.95-2.85L211,669.73a28.28,28.28,0,0,0,2.85-2.84l11.63,3.75,2.85-4.93-9.07-8.19a27.62,27.62,0,0,0,1.06-3.89Z" transform="translate(279.08 -579.58)"/><circle class="cls-10" cx="471.41" cy="68.63" r="13.31"/><circle class="cls-6" cx="471.41" cy="68.63" r="13.31"/><circle class="cls-6" cx="471.41" cy="68.63" r="53.24"/><circle class="cls-6" cx="471.41" cy="68.63" r="66.55"/><rect class="cls-6" x="458.1" y="148.49" width="26.62" height="66.55"/><line class="cls-6" x1="464.75" y1="148.49" x2="464.75" y2="135.18"/><line class="cls-6" x1="478.06" y1="148.49" x2="478.06" y2="135.18"/><line class="cls-6" x1="471.09" y1="201.73" x2="471.09" y2="201.73"/><line class="cls-7" x1="471.09" y1="188.42" x2="471.09" y2="168.46"/><line class="cls-6" x1="471.09" y1="161.8" x2="471.09" y2="161.8"/><path class="cls-8" d="M-2.39,900.36c0,21.63,20,31.17,20,53.24C17.58,980.22-9,993.53-9,993.53V953.6H-35.66v39.93s-26.62-13.31-26.62-39.93c0-22.07,20-31.61,20-53.24V793.88c0-21.63-20-31.17-20-53.24,0-26.62,26.62-39.93,26.62-39.93v39.93H-9V700.71S17.58,714,17.58,740.64c0,22.07-20,31.61-20,53.24V900.36Z" transform="translate(279.08 -579.58)"/><circle class="cls-2" cx="256.73" cy="187.68" r="6.66"/><circle class="cls-2" cx="256.73" cy="347.4" r="6.66"/><path class="cls-2" d="M-2.39,900.36c0,21.63,20,31.17,20,53.24C17.58,980.22-9,993.53-9,993.53V953.6H-35.66v39.93s-26.62-13.31-26.62-39.93c0-22.07,20-31.61,20-53.24V793.88c0-21.63-20-31.17-20-53.24,0-26.62,26.62-39.93,26.62-39.93v39.93H-9V700.71S17.58,714,17.58,740.64c0,22.07-20,31.61-20,53.24V900.36Z" transform="translate(279.08 -579.58)"/><line class="cls-2" x1="256.73" y1="214.3" x2="256.73" y2="320.78"/><path class="cls-10" d="M-120.47,980.22a13.3,13.3,0,0,0,13.31,13.31h13.31a13.3,13.3,0,0,0,13.31-13.31" transform="translate(279.08 -579.58)"/><rect class="cls-10" x="165.27" y="280.85" width="26.62" height="13.31"/><rect class="cls-10" x="158.61" y="267.54" width="39.93" height="13.31"/><rect class="cls-10" x="158.61" y="294.16" width="39.93" height="106.48"/><polygon class="cls-8" points="175.25 134.44 171.92 161.06 185.23 161.06 181.9 134.44 175.25 134.44"/><line class="cls-2" x1="178.58" y1="267.54" x2="178.58" y2="161.06"/><polygon class="cls-2" points="175.25 134.44 171.92 161.06 185.23 161.06 181.9 134.44 175.25 134.44"/><line class="cls-2" x1="158.61" y1="400.64" x2="198.54" y2="400.64"/><line class="cls-2" x1="198.54" y1="400.64" x2="198.54" y2="294.16"/><line class="cls-2" x1="185.23" y1="400.64" x2="185.23" y2="294.16"/><line class="cls-2" x1="171.92" y1="400.64" x2="171.92" y2="294.16"/><line class="cls-2" x1="158.61" y1="294.16" x2="198.54" y2="294.16"/><rect class="cls-2" x="158.61" y="267.54" width="39.93" height="13.31"/><line class="cls-2" x1="165.27" y1="280.85" x2="165.27" y2="294.16"/><line class="cls-2" x1="191.89" y1="280.85" x2="191.89" y2="294.16"/><line class="cls-2" x1="158.61" y1="294.16" x2="158.61" y2="400.64"/><path class="cls-2" d="M-120.47,980.22a13.3,13.3,0,0,0,13.31,13.31h13.31a13.3,13.3,0,0,0,13.31-13.31" transform="translate(279.08 -579.58)"/><path class="cls-8" d="M1261.93,993.53V913.67a39.91,39.91,0,0,1,39.93-39.93h79.86a39.91,39.91,0,0,1,39.93,39.93v79.86" transform="translate(279.08 -579.58)"/><polygon class="cls-17" points="1654.14 334.09 1654.14 294.16 1640.83 294.16 1640.83 334.09 1600.9 334.09 1600.9 294.16 1587.59 294.16 1587.59 334.09 1567.63 360.71 1567.63 413.95 1674.11 413.95 1674.11 360.71 1654.14 334.09"/><path class="cls-9" d="M1361.75,687.4h-0.38c-3.93-8.3-10-13.31-19.59-13.31s-15.66,5-19.59,13.31h-0.38c-30.25,0-39.93,29.77-39.93,66.55h119.79C1401.68,717.17,1392,687.4,1361.75,687.4Z" transform="translate(279.08 -579.58)"/><circle class="cls-3" cx="1620.87" cy="147.75" r="13.31"/><rect class="cls-9" x="1554.32" y="174.37" width="133.1" height="13.31"/><rect class="cls-2" x="1554.32" y="174.37" width="133.1" height="13.31"/><circle class="cls-2" cx="1620.87" cy="147.75" r="13.31"/><path class="cls-2" d="M1387.9,767.25a53.24,53.24,0,1,1-92.22,0" transform="translate(279.08 -579.58)"/><line class="cls-2" x1="1674.11" y1="214.3" x2="1674.11" y2="187.68"/><line class="cls-2" x1="1567.63" y1="214.3" x2="1567.63" y2="187.68"/><line class="cls-2" x1="1607.56" y1="294.16" x2="1607.56" y2="267.54"/><line class="cls-2" x1="1634.18" y1="294.16" x2="1634.18" y2="265.86"/><line class="cls-2" x1="1567.63" y1="334.09" x2="1567.63" y2="413.95"/><line class="cls-2" x1="1674.11" y1="334.09" x2="1674.11" y2="413.95"/><path class="cls-2" d="M1261.93,993.53V913.67a39.91,39.91,0,0,1,39.93-39.93h79.86a39.91,39.91,0,0,1,39.93,39.93v79.86" transform="translate(279.08 -579.58)"/><line class="cls-2" x1="1587.59" y1="294.16" x2="1587.59" y2="334.09"/><line class="cls-2" x1="1600.9" y1="294.16" x2="1600.9" y2="334.09"/><line class="cls-2" x1="1640.83" y1="334.09" x2="1640.83" y2="294.16"/><line class="cls-2" x1="1654.14" y1="334.09" x2="1654.14" y2="294.16"/><line class="cls-2" x1="1587.59" y1="334.09" x2="1654.14" y2="334.09"/><line class="cls-2" x1="1654.14" y1="334.09" x2="1674.11" y2="360.71"/><line class="cls-2" x1="1587.59" y1="334.09" x2="1567.63" y2="360.71"/><line class="cls-2" x1="1620.87" y1="374.02" x2="1647.49" y2="374.02"/><line class="cls-2" x1="1627.52" y1="374.02" x2="1627.52" y2="360.71"/><line class="cls-2" x1="1640.83" y1="374.02" x2="1640.83" y2="360.71"/><path class="cls-2" d="M1368.41,754c0-41.08,0-79.86-26.62-79.86s-26.62,38.78-26.62,79.86" transform="translate(279.08 -579.58)"/><path class="cls-2" d="M1321.82,687.4c-30.25,0-39.93,29.77-39.93,66.55" transform="translate(279.08 -579.58)"/><path class="cls-2" d="M1401.68,754c0-36.79-9.68-66.55-39.93-66.55" transform="translate(279.08 -579.58)"/><line class="cls-2" x1="1541" y1="413.95" x2="1700.73" y2="413.95"/><polygon class="cls-5" points="1398.03 175.11 1384.72 175.11 1378.06 161.8 1404.68 161.8 1398.03 175.11"/><rect class="cls-8" x="1371.41" y="121.87" width="39.93" height="39.93"/><path class="cls-3" d="M1132.26,701.45c0-16,6.66-17,17.68-28.9a53.24,53.24,0,1,0-75.29,0c11,11.86,17.68,12.93,17.68,28.9" transform="translate(279.08 -579.58)"/><rect class="cls-6" x="1371.41" y="121.87" width="39.93" height="39.93"/><path class="cls-6" d="M1132.26,701.45c0-16,6.66-17,17.68-28.9a53.24,53.24,0,1,0-75.29,0c11,11.86,17.68,12.93,17.68,28.9" transform="translate(279.08 -579.58)"/><line class="cls-6" x1="1378.06" y1="42.01" x2="1404.68" y2="42.01"/><line class="cls-6" x1="1404.68" y1="42.01" x2="1391.37" y2="121.87"/><line class="cls-6" x1="1391.37" y1="121.87" x2="1378.06" y2="42.01"/><line class="cls-6" x1="1371.41" y1="135.18" x2="1411.34" y2="135.18"/><line class="cls-15" x1="1371.41" y1="148.49" x2="1411.34" y2="148.49"/><polygon class="cls-6" points="1398.03 175.11 1384.72 175.11 1378.06 161.8 1404.68 161.8 1398.03 175.11"/><path class="cls-11" d="M1072.36,634.9A39.93,39.93,0,0,1,1112.29,595" transform="translate(279.08 -579.58)"/><polygon class="cls-1" points="662.73 118.91 662.73 92.28 556.25 92.28 556.25 158.84 582.87 158.84 582.87 172.15 596.18 158.84 609.49 158.84 609.49 118.91 662.73 118.91"/><polygon class="cls-14" points="662.73 118.91 662.73 158.84 609.49 158.84 609.49 185.46 676.04 185.46 689.35 198.77 689.35 185.46 715.97 185.46 715.97 118.91 662.73 118.91"/><rect class="cls-16" x="609.49" y="118.9" width="53.24" height="39.93"/><polygon class="cls-6" points="556.25 92.28 556.25 158.84 582.87 158.84 582.87 172.15 596.18 158.84 662.73 158.84 662.73 92.28 556.25 92.28"/><polygon class="cls-6" points="715.97 118.91 715.97 185.46 689.35 185.46 689.35 198.77 676.04 185.46 609.49 185.46 609.49 118.91 715.97 118.91"/></svg>